<svg width="136" height="111" viewBox="0 0 136 111" fill="none" xmlns="http://www.w3.org/2000/svg">
<circle cx="65" cy="62" r="41" fill="#EBF8E8"/>
<circle cx="65" cy="62" r="30" fill="#C5EBBA"/>
<path opacity="0.99" d="M61.4766 69.5052C61.2412 69.5055 61.0082 69.4582 60.7908 69.366C60.5734 69.2738 60.376 69.1386 60.2098 68.9681L55.1708 63.8119C54.8383 63.4674 54.6525 63.0023 54.654 62.5181C54.6555 62.0339 54.8441 61.57 55.1787 61.2276C55.5133 60.8852 55.9666 60.6922 56.4398 60.6907C56.913 60.6891 57.3675 60.8792 57.7042 61.2194L61.4765 65.0795L71.2958 55.0319C71.6325 54.6917 72.087 54.5016 72.5602 54.5032C73.0334 54.5047 73.4867 54.6977 73.8213 55.0401C74.1559 55.3825 74.3445 55.8464 74.346 56.3306C74.3475 56.8148 74.1617 57.2799 73.8292 57.6244L62.7433 68.9681C62.5771 69.1386 62.3797 69.2739 62.1623 69.366C61.9449 69.4582 61.7119 69.5055 61.4766 69.5052Z" fill="white"/>
<path d="M64.5 43.6667C60.9564 43.6667 57.4924 44.7419 54.546 46.7564C51.5996 48.7709 49.3032 51.6342 47.9471 54.9842C46.5911 58.3341 46.2363 62.0204 46.9276 65.5767C47.6189 69.133 49.3253 72.3997 51.831 74.9636C54.3367 77.5276 57.5291 79.2737 61.0046 79.9811C64.4801 80.6885 68.0826 80.3254 71.3564 78.9378C74.6302 77.5502 77.4284 75.2004 79.3971 72.1855C81.3659 69.1706 82.4167 65.626 82.4167 62C82.4112 57.1394 80.5218 52.4795 77.163 49.0425C73.8041 45.6056 69.2501 43.6722 64.5 43.6667ZM73.8292 57.6244L62.7433 68.9681C62.5769 69.1384 62.3795 69.2735 62.1621 69.3656C61.9447 69.4578 61.7118 69.5052 61.4765 69.5052C61.2412 69.5052 61.0082 69.4578 60.7909 69.3656C60.5735 69.2735 60.3761 69.1384 60.2097 68.9681L55.1708 63.8119C54.8383 63.4674 54.6525 63.0022 54.654 62.5181C54.6555 62.0339 54.8441 61.57 55.1787 61.2276C55.5132 60.8852 55.9666 60.6922 56.4398 60.6907C56.913 60.6891 57.3675 60.8792 57.7042 61.2194L61.4765 65.0795L71.2958 55.0319C71.6325 54.6917 72.087 54.5016 72.5602 54.5032C73.0334 54.5047 73.4867 54.6977 73.8213 55.0401C74.1559 55.3825 74.3445 55.8464 74.346 56.3306C74.3475 56.8147 74.1617 57.2799 73.8292 57.6244Z" fill="#53C330"/>
<path d="M28.2322 7.76777L31.7678 4.23224" stroke="#B5B5B5" stroke-width="1.5" stroke-linecap="round"/>
<path d="M28.2322 4.23223L31.7678 7.76776" stroke="#B5B5B5" stroke-width="1.5" stroke-linecap="round"/>
<path d="M104.232 106.768L107.768 103.232" stroke="#B5B5B5" stroke-width="1.5" stroke-linecap="round"/>
<path d="M104.232 103.232L107.768 106.768" stroke="#B5B5B5" stroke-width="1.5" stroke-linecap="round"/>
<g clip-path="url(#clip0_3_123)">
<path d="M13 103.667C12.3408 103.667 11.6963 103.862 11.1481 104.228C10.6 104.595 10.1727 105.115 9.92042 105.724C9.66813 106.333 9.60212 107.004 9.73074 107.65C9.85935 108.297 10.1768 108.891 10.643 109.357C11.1092 109.823 11.7031 110.141 12.3497 110.269C12.9963 110.398 13.6665 110.332 14.2756 110.08C14.8847 109.827 15.4053 109.4 15.7716 108.852C16.1379 108.304 16.3334 107.659 16.3334 107C16.3334 106.562 16.2471 106.129 16.0796 105.724C15.9121 105.32 15.6666 104.953 15.357 104.643C15.0475 104.333 14.6801 104.088 14.2756 103.92C13.8712 103.753 13.4378 103.667 13 103.667ZM13 109.667C12.4726 109.667 11.957 109.51 11.5185 109.217C11.08 108.924 10.7382 108.508 10.5363 108.021C10.3345 107.533 10.2817 106.997 10.3846 106.48C10.4875 105.962 10.7415 105.487 11.1144 105.114C11.4873 104.741 11.9625 104.487 12.4798 104.385C12.9971 104.282 13.5332 104.335 14.0205 104.536C14.5078 104.738 14.9243 105.08 15.2173 105.518C15.5103 105.957 15.6667 106.473 15.6667 107C15.6667 107.707 15.3857 108.386 14.8856 108.886C14.3855 109.386 13.7073 109.667 13 109.667Z" fill="#B5B5B5"/>
</g>
<g clip-path="url(#clip1_3_123)">
<path d="M132 55.6667C131.341 55.6667 130.696 55.8622 130.148 56.2285C129.6 56.5947 129.173 57.1153 128.92 57.7244C128.668 58.3335 128.602 59.0037 128.731 59.6503C128.859 60.2969 129.177 60.8909 129.643 61.357C130.109 61.8232 130.703 62.1407 131.35 62.2693C131.996 62.3979 132.667 62.3319 133.276 62.0796C133.885 61.8273 134.405 61.4001 134.772 60.8519C135.138 60.3038 135.333 59.6593 135.333 59C135.333 58.5623 135.247 58.1288 135.08 57.7244C134.912 57.32 134.667 56.9525 134.357 56.643C134.048 56.3335 133.68 56.0879 133.276 55.9204C132.871 55.7529 132.438 55.6667 132 55.6667ZM132 61.6667C131.473 61.6667 130.957 61.5103 130.519 61.2173C130.08 60.9243 129.738 60.5078 129.536 60.0205C129.335 59.5332 129.282 58.9971 129.385 58.4798C129.487 57.9625 129.741 57.4873 130.114 57.1144C130.487 56.7415 130.962 56.4875 131.48 56.3846C131.997 56.2817 132.533 56.3345 133.021 56.5363C133.508 56.7382 133.924 57.08 134.217 57.5185C134.51 57.957 134.667 58.4726 134.667 59C134.667 59.7073 134.386 60.3855 133.886 60.8856C133.386 61.3857 132.707 61.6667 132 61.6667Z" fill="#B5B5B5"/>
</g>
<circle cx="2.5" cy="48.5" r="2.5" fill="#53C330"/>
<circle cx="108.5" cy="16.5" r="2.5" fill="#53C330"/>
<defs>
<clipPath id="clip0_3_123">
<rect width="8" height="8" fill="white" transform="translate(9 103)"/>
</clipPath>
<clipPath id="clip1_3_123">
<rect width="8" height="8" fill="white" transform="translate(128 55)"/>
</clipPath>
</defs>
</svg>
