<svg xmlns="http://www.w3.org/2000/svg" xmlns:xlink="http://www.w3.org/1999/xlink" width="500" zoomAndPan="magnify" viewBox="0 0 375 374.999991" height="500" preserveAspectRatio="xMidYMid meet" version="1.0"><defs><clipPath id="0c592543ca"><path d="M 83.007812 34 L 292 34 L 292 340 L 83.007812 340 Z M 83.007812 34 " clip-rule="nonzero"/></clipPath></defs><g clip-path="url(#0c592543ca)"><path fill="#000000" d="M 217.199219 143 C 206.828125 140.042969 196.511719 147.878906 196.511719 158.679688 L 196.511719 324.921875 C 196.511719 334.203125 205.140625 341.144531 214.171875 339.011719 C 258.679688 328.515625 291.910156 288.414062 291.910156 240.6875 C 291.910156 194.484375 260.78125 155.4375 217.199219 143 Z M 178.316406 134.183594 L 178.316406 324.921875 C 178.316406 334.203125 169.683594 341.144531 160.65625 339.011719 C 116.144531 328.519531 82.914062 288.414062 82.914062 240.6875 L 82.914062 46.40625 C 82.914062 39.117188 89.5625 33.632812 96.707031 35.023438 C 143.148438 44.054688 178.316406 85.085938 178.316406 134.183594 Z M 178.316406 134.183594 " fill-opacity="1" fill-rule="nonzero"/></g></svg>